PathFileType	4	(X/Y/Z)	s06c0102.trc
DataRate	CameraRate	NumFrames	NumMarkers	Units	OrigDataRate	OrigDataStartFrame	OrigNumFrames
200	200	4	48	mm	200	1000	2000
Frame#	Time	racr			lacr			c7			jug			rlel			rdr			llel			ldr			s2			lic			ric			lasi			rasi			rpsi			lpsi			rgt			lgt			rth1			rth2			rth3			rth4			rlfc			rmfc			rsh1			rsh2			rsh3			rsh4			rlmal			rcal			rtoe			rmt5			lth1			lth2			lth4			lth3			llfc			lmfc			llmal			lcal			lmt5			lsh1			lsh2			lsh3			lsh4			ltoe			SBIKE			LBIKE			RBIKE			
		X1	Y1	Z1	X2	Y2	Z2	X3	Y3	Z3	X4	Y4	Z4	X5	Y5	Z5	X6	Y6	Z6	X7	Y7	Z7	X8	Y8	Z8	X9	Y9	Z9	X10	Y10	Z10	X11	Y11	Z11	X12	Y12	Z12	X13	Y13	Z13	X14	Y14	Z14	X15	Y15	Z15	X16	Y16	Z16	X17	Y17	Z17	X18	Y18	Z18	X19	Y19	Z19	X20	Y20	Z20	X21	Y21	Z21	X22	Y22	Z22	X23	Y23	Z23	X24	Y24	Z24	X25	Y25	Z25	X26	Y26	Z26	X27	Y27	Z27	X28	Y28	Z28	X29	Y29	Z29	X30	Y30	Z30	X31	Y31	Z31	X32	Y32	Z32	X33	Y33	Z33	X34	Y34	Z34	X35	Y35	Z35	X36	Y36	Z36	X37	Y37	Z37	X38	Y38	Z38	X39	Y39	Z39	X40	Y40	Z40	X41	Y41	Z41	X42	Y42	Z42	X43	Y43	Z43	X44	Y44	Z44	X45	Y45	Z45	X46	Y46	Z46	X47	Y47	Z47	X48	Y48	Z48	
1000	5.0000	518.867193	1284.282983	-93.829305	525.458627	1255.790308	-388.247602	521.413944	1340.227550	-249.199456	485.469011	1176.545665	-235.157063	527.336321	1045.672642	24.488663	720.178416	920.424301	-52.984740	487.415998	1004.237403	-472.576680	701.584580	930.636546	-408.021604	-23.689695	1152.462208	-222.077422	131.552846	1129.338845	-401.251838	125.295768	1132.428917	-66.425229	152.725303	1082.348689	-360.146990	149.840032	1100.681064	-86.400053	7.195908	1195.104156	-199.349666	1.495990	1187.960218	-260.303371	84.916832	1038.401373	-38.259643	114.985750	1096.686840	-417.026936	144.680668	914.017570	-15.156137	193.641836	837.443861	-15.751741	198.299649	751.347346	-24.587381	227.277483	850.809171	-26.689002	218.823777	646.219323	-34.950762	223.387272	619.463074	-148.799148	204.714409	525.503659	-11.721401	221.110912	440.955467	-29.033083	194.651193	358.363003	-35.386015	247.408267	443.297533	-58.841790	183.323526	276.151231	-43.546679	121.640236	279.811636	-91.295285	346.464152	117.972737	-98.992315	254.529537	149.873663	-26.295385	192.270749	1027.645214	-431.972334	279.293921	1021.116909	-426.832086	290.970089	1052.953903	-409.766808	353.072352	970.548430	-427.391494	433.395310	892.878621	-394.626969	432.394743	881.443480	-275.040426	176.652978	626.602477	-375.441760	101.039267	639.297531	-327.649703	229.843982	493.188148	-403.067672	373.717720	807.303892	-410.452274	328.968349	735.645221	-388.012932	252.971744	689.946511	-386.700690	349.513043	721.849612	-358.117428	303.473037	445.147798	-346.870302	-202.771464	867.225448	-215.272979	-48.767923	80.381343	-414.654832	-48.757535	80.318229	-17.160304	
1001	5.0050	519.895589	1282.768061	-94.074019	525.531787	1253.981831	-387.955579	522.510291	1339.311673	-249.935397	485.110762	1175.845654	-236.041005	528.105288	1044.664433	24.688963	720.483402	920.035620	-53.246460	486.689558	1002.512848	-472.195793	701.669554	930.539023	-407.931392	-23.622652	1153.443120	-222.043878	130.365284	1130.323695	-400.553702	125.449189	1130.930407	-66.002863	150.550119	1082.211415	-360.141214	149.599208	1098.695870	-86.752485	7.273669	1196.107890	-197.943081	1.511570	1189.397814	-258.995999	84.529745	1038.182614	-37.929899	113.917476	1100.317888	-415.239198	143.888746	913.442214	-15.503635	192.866962	836.915834	-16.725958	197.480366	750.699917	-25.747828	226.922000	850.016280	-27.329535	217.341909	645.805663	-36.371583	221.944869	619.095782	-149.954769	201.287549	524.843509	-12.960847	215.441904	439.949975	-30.502082	186.845493	358.026729	-36.607239	241.785778	441.658315	-60.237415	173.652542	276.099908	-44.642941	111.902278	279.846982	-92.420261	335.343893	116.307935	-98.634468	243.493158	149.410564	-26.434775	191.287125	1032.239170	-431.047721	278.272625	1025.970707	-425.365308	289.712368	1057.703804	-407.792909	352.277717	975.627171	-425.552903	433.695875	898.628019	-392.902570	432.056828	887.144954	-272.961108	181.732571	626.562871	-375.873622	105.253524	636.642189	-328.280084	239.576156	495.412800	-403.422554	375.461496	811.992326	-409.191143	332.198208	739.372520	-387.370251	257.061407	691.960642	-386.697446	352.948016	725.660241	-357.695500	314.812434	450.126668	-347.001913	-202.693226	867.256934	-215.540887	-48.748470	80.356388	-414.718324	-48.720219	80.355828	-17.210962	
1002	5.0100	520.505329	1281.504028	-94.187975	526.103761	1252.060801	-386.519348	523.249027	1338.422952	-250.652853	485.363044	1174.972639	-236.737272	528.880161	1043.927949	25.105269	720.768323	919.670777	-53.313732	486.118567	1000.716158	-471.502309	701.731595	930.400394	-407.697952	-24.019444	1154.723582	-220.866776	129.592965	1131.218305	-399.680527	125.760867	1131.061868	-64.935356	148.367662	1081.730740	-360.137278	150.138578	1098.730767	-86.321661	7.270425	1196.865373	-196.565525	1.388957	1190.583484	-257.685760	84.148204	1037.683686	-37.512963	112.938883	1103.570823	-413.546943	143.851006	912.821404	-15.881084	192.732257	836.374794	-17.726971	197.427288	750.279235	-26.552034	226.927281	849.520420	-28.246434	217.093284	645.288297	-37.888504	220.111836	618.909822	-151.078913	198.802173	524.346619	-14.226755	210.228457	439.142540	-32.088968	179.224451	358.107789	-37.900813	236.360783	439.949086	-62.027808	163.648308	276.417352	-46.471349	102.129059	280.806230	-94.033538	324.145662	115.319586	-97.969829	231.996399	149.542367	-26.815027	190.266137	1036.232140	-429.796019	277.229422	1030.067943	-423.920868	288.485550	1061.656713	-405.907521	351.483231	980.075177	-424.483655	432.920801	902.988068	-392.457118	432.040728	891.616710	-271.096029	186.653890	625.615470	-376.294700	109.361159	632.871694	-328.946520	249.261935	496.872127	-403.501304	376.815237	815.889147	-407.865010	334.982631	742.010385	-386.672043	260.910977	693.082687	-386.693673	355.938135	728.774767	-357.146011	325.985092	454.533833	-347.310462	-202.606773	867.299784	-215.839489	-48.722836	80.325153	-414.770822	-48.701858	80.407240	-17.293955	
1003	5.0150	521.089189	1280.428688	-93.783302	525.991147	1250.445511	-386.703144	523.836377	1337.698051	-251.090278	484.951095	1174.400346	-236.981803	529.543946	1043.188227	25.374885	721.054292	919.428728	-53.286600	485.836414	999.085178	-470.993433	701.695109	930.288985	-407.343912	-24.464864	1155.703151	-219.879371	128.884375	1132.010787	-398.764516	125.971902	1131.351364	-63.745459	146.017947	1081.076974	-360.196455	150.743835	1099.036515	-85.740543	7.145214	1197.378948	-195.252791	1.208997	1191.678463	-256.438336	83.794085	1036.830837	-37.036487	112.054247	1106.466963	-412.094725	143.937972	911.998882	-16.620034	193.484490	835.954777	-18.767227	199.049893	749.978985	-27.234391	227.559701	849.356702	-29.336191	218.030985	644.725278	-39.373496	219.447244	618.718122	-152.585006	197.261828	524.101727	-15.538807	205.751523	438.705841	-33.709879	172.074179	358.625322	-39.247496	231.556307	438.797231	-64.059727	154.270143	277.948013	-47.505756	92.588328	282.398256	-95.478824	313.078570	114.880217	-97.552366	220.880623	150.457186	-27.036718	189.228206	1039.530864	-428.649373	276.161402	1033.373583	-422.358960	287.302883	1064.802732	-404.060816	350.443931	983.317579	-423.132114	431.580326	906.744228	-391.827968	431.843269	895.618366	-269.200009	191.388937	623.563668	-376.833607	113.274924	628.003587	-329.627493	258.851499	497.624087	-404.003085	377.805834	818.639532	-406.603897	337.446031	743.458842	-386.306258	264.477085	693.201962	-386.838729	358.742821	730.486440	-356.776795	336.983876	458.621662	-347.647524	-202.598641	867.283387	-216.098001	-48.751209	80.296052	-414.825113	-48.762407	80.537511	-17.336995	
